<?xml version="1.0" encoding="UTF-8" standalone="no"?>
<!DOCTYPE svg PUBLIC "-//W3C//DTD SVG 1.1//EN" "http://www.w3.org/Graphics/SVG/1.1/DTD/svg11.dtd">
<svg width="100%" height="100%" viewBox="0 0 1080 1080" version="1.1" xmlns="http://www.w3.org/2000/svg" xmlns:xlink="http://www.w3.org/1999/xlink" xml:space="preserve" xmlns:serif="http://www.serif.com/" style="fill-rule:evenodd;clip-rule:evenodd;stroke-linejoin:round;stroke-miterlimit:2;">
    <g transform="matrix(1.19616,0,0,1.19616,-105.924,-133.349)">
        <path d="M236.645,717.654L195.664,680.287C195.664,680.287 193.974,672.846 204.005,662.512C214.036,652.178 221.014,651.495 224.281,647.289C227.549,643.082 345.139,518.143 345.139,518.143C345.139,518.143 347.436,510.967 350.738,504.462C354.039,497.957 352.205,464.337 340.608,421.414C329.011,378.49 316.153,339.111 356.825,294.561C397.497,250.011 469.842,173.211 495.813,146.132C521.783,119.054 597.077,99.825 642.291,142.037C687.505,184.25 697.674,192.915 744.153,237.256C790.633,281.596 779.908,354.839 750.12,386.987C720.333,419.136 625.191,522.194 608.55,540C591.91,557.806 561.349,569.065 533.553,566.031C505.758,562.996 441.367,552.236 429.858,550.04C418.349,547.845 401.235,548.037 383.675,566.375C366.116,584.712 270.942,684.126 268.633,686.897C266.324,689.667 259.63,705.24 254.688,709.568C249.745,713.897 242.8,721.104 236.645,717.654Z" style="fill:rgb(9,189,149);"/>
    </g>
    <g transform="matrix(1.15837,0,0,1.15837,-90.9833,-106.393)">
        <path d="M788.62,511.773C843.169,511.773 887.455,556.06 887.455,610.608C887.455,665.157 843.169,709.443 788.62,709.443C734.072,709.443 689.785,665.157 689.785,610.608C689.785,556.06 734.072,511.773 788.62,511.773ZM791.878,678.849C784.237,678.849 778.034,681.694 778.034,685.198C778.034,688.701 784.237,691.546 791.878,691.546C799.519,691.546 805.722,688.701 805.722,685.198C805.722,681.694 799.519,678.849 791.878,678.849ZM789.111,523.032C781.294,523.033 774.947,525.345 774.948,528.191C774.948,531.037 781.296,533.346 789.113,533.345C796.931,533.343 803.277,531.032 803.277,528.186C803.276,525.34 796.929,523.031 789.111,523.032ZM846.9,540.531C840.771,535.639 834.634,533.121 833.205,534.912C831.775,536.703 835.591,542.129 841.72,547.021C847.849,551.913 853.985,554.431 855.415,552.64C856.844,550.849 853.029,545.423 846.9,540.531ZM726.325,543.754C720.793,548.947 717.933,554.9 719.942,557.04C721.95,559.179 728.072,556.7 733.604,551.506C739.135,546.313 741.996,540.359 739.987,538.22C737.979,536.081 731.857,538.56 726.325,543.754ZM790.175,559.583C782.06,559.583 775.473,566.209 775.473,574.37C775.473,582.531 782.06,589.157 790.175,589.157C798.289,589.157 804.877,582.531 804.877,574.37C804.877,566.209 798.289,559.583 790.175,559.583ZM872.773,579.801C869.954,580.056 868.283,587.109 869.044,595.542C869.805,603.975 872.712,610.614 875.531,610.36C878.35,610.106 880.021,603.052 879.26,594.62C878.499,586.187 875.592,579.547 872.773,579.801ZM731.068,667.308C725.198,661.57 718.572,658.815 716.28,661.16C713.988,663.504 716.893,670.067 722.763,675.805C728.633,681.543 735.259,684.297 737.551,681.953C739.843,679.608 736.938,673.046 731.068,667.308ZM850.214,667.165C844.701,673.129 841.739,679.371 843.603,681.095C845.468,682.818 851.458,679.375 856.971,673.411C862.484,667.446 865.446,661.205 863.581,659.481C861.716,657.757 855.727,661.2 850.214,667.165ZM827.005,610.422C819.265,610.422 812.981,617.252 812.981,625.664C812.981,634.077 819.265,640.907 827.005,640.907C834.746,640.907 841.03,634.077 841.03,625.664C841.03,617.252 834.746,610.422 827.005,610.422ZM755.501,614.117C748.244,614.117 742.352,620.119 742.352,627.512C742.352,634.905 748.244,640.907 755.501,640.907C762.759,640.907 768.651,634.905 768.651,627.512C768.651,620.119 762.759,614.117 755.501,614.117ZM705.034,586.971C701.254,586.971 698.185,593.423 698.185,601.371C698.185,609.319 701.254,615.771 705.034,615.771C708.814,615.771 711.883,609.319 711.883,601.371C711.883,593.423 708.814,586.971 705.034,586.971Z" style="fill:rgb(9,189,149);"/>
    </g>
    <g transform="matrix(1.48771,0,0,1.48771,-216.782,143.886)">
        <g transform="matrix(81.1125,0,0,81.1125,206.141,528.387)">
            <path d="M0.508,-0.68L0.106,-0.68L0.106,-0L0.519,-0L0.519,-0.124L0.241,-0.124L0.241,-0.285L0.481,-0.285L0.481,-0.409L0.241,-0.409L0.241,-0.556L0.508,-0.556L0.508,-0.68Z" style="fill:rgb(112,44,195);fill-rule:nonzero;"/>
        </g>
        <g transform="matrix(81.1125,0,0,81.1125,254.808,528.387)">
            <path d="M0.361,-0.458L0.368,-0.458L0.445,-0.249L0.285,-0.249L0.361,-0.458ZM0.489,-0.133L0.541,-0L0.686,-0L0.403,-0.68L0.323,-0.68L0.044,-0L0.189,-0L0.241,-0.133L0.489,-0.133Z" style="fill:rgb(112,44,195);fill-rule:nonzero;"/>
        </g>
        <g transform="matrix(81.1125,0,0,81.1125,314.02,528.387)">
            <path d="M0.066,-0.052C0.108,-0.015 0.205,0.015 0.283,0.015C0.396,0.015 0.517,-0.04 0.517,-0.181C0.517,-0.259 0.471,-0.324 0.361,-0.389C0.255,-0.451 0.221,-0.475 0.221,-0.515C0.221,-0.555 0.265,-0.57 0.305,-0.57C0.363,-0.57 0.413,-0.547 0.464,-0.515L0.502,-0.627C0.46,-0.658 0.382,-0.695 0.298,-0.695C0.152,-0.695 0.08,-0.599 0.08,-0.517C0.08,-0.422 0.124,-0.374 0.249,-0.304C0.342,-0.252 0.373,-0.227 0.373,-0.179C0.373,-0.147 0.343,-0.11 0.28,-0.11C0.217,-0.11 0.158,-0.137 0.114,-0.171L0.066,-0.052Z" style="fill:rgb(112,44,195);fill-rule:nonzero;"/>
        </g>
        <g transform="matrix(81.1125,0,0,81.1125,361.065,528.387)">
            <path d="M0.576,-0.556L0.576,-0.68L0.054,-0.68L0.054,-0.556L0.248,-0.556L0.248,-0L0.382,-0L0.382,-0.556L0.576,-0.556Z" style="fill:rgb(112,44,195);fill-rule:nonzero;"/>
        </g>
        <g transform="matrix(81.1125,0,0,81.1125,433.256,528.387)">
            <path d="M0.241,-0.68L0.106,-0.68L0.106,-0L0.505,-0L0.505,-0.124L0.241,-0.124L0.241,-0.68Z" style="fill:rgb(112,44,195);fill-rule:nonzero;"/>
        </g>
        <g transform="matrix(81.1125,0,0,81.1125,477.056,528.387)">
            <path d="M0.759,-0.335C0.759,-0.553 0.598,-0.695 0.416,-0.695C0.239,-0.695 0.071,-0.55 0.071,-0.335C0.071,-0.118 0.231,0.015 0.416,0.015C0.604,0.015 0.759,-0.128 0.759,-0.335ZM0.619,-0.337C0.619,-0.204 0.537,-0.112 0.416,-0.112C0.316,-0.112 0.212,-0.187 0.212,-0.337C0.212,-0.478 0.303,-0.568 0.415,-0.568C0.53,-0.568 0.619,-0.478 0.619,-0.337Z" style="fill:rgb(112,44,195);fill-rule:nonzero;"/>
        </g>
        <g transform="matrix(81.1125,0,0,81.1125,542.757,528.387)">
            <path d="M0.576,-0.556L0.576,-0.68L0.054,-0.68L0.054,-0.556L0.248,-0.556L0.248,-0L0.382,-0L0.382,-0.556L0.576,-0.556Z" style="fill:rgb(112,44,195);fill-rule:nonzero;"/>
        </g>
        <g transform="matrix(81.1125,0,0,81.1125,593.858,528.387)">
            <path d="M0.664,-0.68L0.529,-0.68L0.529,-0.409L0.241,-0.409L0.241,-0.68L0.106,-0.68L0.106,-0L0.241,-0L0.241,-0.285L0.529,-0.285L0.529,-0L0.664,-0L0.664,-0.68Z" style="fill:rgb(112,44,195);fill-rule:nonzero;"/>
        </g>
        <g transform="matrix(81.1125,0,0,81.1125,656.315,528.387)">
            <rect x="0.108" y="-0.68" width="0.135" height="0.68" style="fill:rgb(112,44,195);fill-rule:nonzero;"/>
        </g>
        <g transform="matrix(81.1125,0,0,81.1125,684.704,528.387)">
            <path d="M0.361,-0.458L0.368,-0.458L0.445,-0.249L0.285,-0.249L0.361,-0.458ZM0.489,-0.133L0.541,-0L0.686,-0L0.403,-0.68L0.323,-0.68L0.044,-0L0.189,-0L0.241,-0.133L0.489,-0.133Z" style="fill:rgb(112,44,195);fill-rule:nonzero;"/>
        </g>
        <g transform="matrix(81.1125,0,0,81.1125,743.916,528.387)">
            <path d="M0.193,-0.68L0.106,-0.68L0.106,-0L0.241,-0L0.241,-0.437L0.246,-0.437L0.64,-0L0.724,-0L0.724,-0.68L0.59,-0.68L0.59,-0.248L0.584,-0.248L0.193,-0.68Z" style="fill:rgb(112,44,195);fill-rule:nonzero;"/>
        </g>
        <g transform="matrix(81.1125,0,0,81.1125,266.975,623.262)">
            <path d="M0.534,-0.464C0.534,-0.602 0.44,-0.68 0.289,-0.68L0.106,-0.68L0.106,-0L0.241,-0L0.241,-0.241L0.298,-0.241C0.436,-0.241 0.534,-0.332 0.534,-0.464ZM0.393,-0.462C0.393,-0.389 0.341,-0.363 0.292,-0.363L0.241,-0.363L0.241,-0.56L0.292,-0.56C0.348,-0.56 0.393,-0.527 0.393,-0.462Z" style="fill:rgb(112,44,195);fill-rule:nonzero;"/>
        </g>
        <g transform="matrix(81.1125,0,0,81.1125,314.02,623.262)">
            <rect x="0.108" y="-0.68" width="0.135" height="0.68" style="fill:rgb(112,44,195);fill-rule:nonzero;"/>
        </g>
        <g transform="matrix(81.1125,0,0,81.1125,342.41,623.262)">
            <path d="M0.617,-0.507L0.652,-0.63C0.594,-0.666 0.518,-0.695 0.424,-0.695C0.228,-0.695 0.071,-0.547 0.071,-0.324C0.071,-0.138 0.213,0.015 0.424,0.015C0.504,0.015 0.608,-0.017 0.661,-0.063L0.621,-0.174L0.615,-0.174C0.563,-0.133 0.503,-0.112 0.426,-0.112C0.315,-0.112 0.212,-0.194 0.212,-0.328C0.212,-0.484 0.298,-0.568 0.423,-0.568C0.502,-0.568 0.572,-0.539 0.611,-0.507L0.617,-0.507Z" style="fill:rgb(112,44,195);fill-rule:nonzero;"/>
        </g>
        <g transform="matrix(81.1125,0,0,81.1125,400.811,623.262)">
            <path d="M0.245,-0.279L0.465,-0L0.64,-0L0.64,-0.004L0.357,-0.354L0.62,-0.675L0.62,-0.68L0.454,-0.68L0.245,-0.416L0.241,-0.416L0.241,-0.68L0.106,-0.68L0.106,-0L0.241,-0L0.241,-0.279L0.245,-0.279Z" style="fill:rgb(112,44,195);fill-rule:nonzero;"/>
        </g>
        <g transform="matrix(81.1125,0,0,81.1125,455.156,623.262)">
            <path d="M0.241,-0.68L0.106,-0.68L0.106,-0L0.505,-0L0.505,-0.124L0.241,-0.124L0.241,-0.68Z" style="fill:rgb(112,44,195);fill-rule:nonzero;"/>
        </g>
        <g transform="matrix(81.1125,0,0,81.1125,500.579,623.262)">
            <path d="M0.508,-0.68L0.106,-0.68L0.106,-0L0.519,-0L0.519,-0.124L0.241,-0.124L0.241,-0.285L0.481,-0.285L0.481,-0.409L0.241,-0.409L0.241,-0.556L0.508,-0.556L0.508,-0.68Z" style="fill:rgb(112,44,195);fill-rule:nonzero;"/>
        </g>
        <g transform="matrix(81.1125,0,0,81.1125,549.246,623.262)">
            <path d="M0.429,-0.359C0.51,-0.377 0.534,-0.454 0.534,-0.505C0.534,-0.603 0.468,-0.68 0.308,-0.68L0.106,-0.68L0.106,-0L0.312,-0C0.474,-0 0.569,-0.072 0.569,-0.196C0.569,-0.265 0.523,-0.339 0.429,-0.354L0.429,-0.359ZM0.33,-0.292C0.379,-0.292 0.429,-0.269 0.429,-0.209C0.429,-0.152 0.388,-0.12 0.333,-0.12L0.241,-0.12L0.241,-0.292L0.33,-0.292ZM0.394,-0.483C0.394,-0.432 0.359,-0.403 0.313,-0.403L0.241,-0.403L0.241,-0.56L0.311,-0.56C0.355,-0.56 0.394,-0.536 0.394,-0.483Z" style="fill:rgb(112,44,195);fill-rule:nonzero;"/>
        </g>
        <g transform="matrix(81.1125,0,0,81.1125,600.347,623.262)">
            <path d="M0.361,-0.458L0.368,-0.458L0.445,-0.249L0.285,-0.249L0.361,-0.458ZM0.489,-0.133L0.541,-0L0.686,-0L0.403,-0.68L0.323,-0.68L0.044,-0L0.189,-0L0.241,-0.133L0.489,-0.133Z" style="fill:rgb(112,44,195);fill-rule:nonzero;"/>
        </g>
        <g transform="matrix(81.1125,0,0,81.1125,659.559,623.262)">
            <path d="M0.241,-0.68L0.106,-0.68L0.106,-0L0.505,-0L0.505,-0.124L0.241,-0.124L0.241,-0.68Z" style="fill:rgb(112,44,195);fill-rule:nonzero;"/>
        </g>
        <g transform="matrix(81.1125,0,0,81.1125,704.982,623.262)">
            <path d="M0.241,-0.68L0.106,-0.68L0.106,-0L0.505,-0L0.505,-0.124L0.241,-0.124L0.241,-0.68Z" style="fill:rgb(112,44,195);fill-rule:nonzero;"/>
        </g>
    </g>
</svg>
