<svg clip-rule="evenodd" fill-rule="evenodd" stroke-linejoin="round" stroke-miterlimit="2" viewBox="0 0 240 240" xmlns="http://www.w3.org/2000/svg"><path d="m0 .0001h239.749v239.749h-239.749z" fill="none"/><path d="m236.645 717.654-40.981-37.367s-1.69-7.441 8.341-17.775 17.009-11.017 20.276-15.223c3.268-4.207 120.858-129.146 120.858-129.146s2.297-7.176 5.599-13.681c3.301-6.505 1.467-40.125-10.13-83.048-11.597-42.924-24.455-82.303 16.217-126.853s113.017-121.35 138.988-148.429c25.97-27.078 101.264-46.307 146.478-4.095 45.214 42.213 55.383 50.878 101.862 95.219 46.48 44.34 35.755 117.583 5.967 149.731-29.787 32.149-124.929 135.207-141.57 153.013-16.64 17.806-47.201 29.065-74.997 26.031-27.795-3.035-92.186-13.795-103.695-15.991-11.509-2.195-28.623-2.003-46.183 16.335-17.559 18.337-112.733 117.751-115.042 120.522-2.309 2.77-9.003 18.343-13.945 22.671-4.943 4.329-11.888 11.536-18.043 8.086z" fill="#702cc3" transform="matrix(.285848 0 0 .285848 -18.9506 .3967)"/></svg>